<svg width="16" height="16" viewBox="0 0 16 16" fill="none" xmlns="http://www.w3.org/2000/svg">
<path opacity="0.4" d="M0.5 3.83525C0.5 1.997 2.02268 0.5 3.8934 0.5H7.61423C9.48114 0.5 11 1.9925 11 3.82775V12.1648C11 14.0037 9.47732 15.5 7.60584 15.5H3.88653C2.01886 15.5 0.5 14.0075 0.5 12.1722V11.4672V3.83525Z" fill="#A8A8A8"/>
<path d="M15.3339 7.59116L13.1996 5.40941C12.979 5.18441 12.624 5.18441 12.4041 5.41091C12.185 5.63741 12.1857 6.00266 12.4056 6.22766L13.575 7.42241H12.4538H6.16107C5.85063 7.42241 5.59863 7.68116 5.59863 7.99991C5.59863 8.31941 5.85063 8.57741 6.16107 8.57741H13.575L12.4056 9.77216C12.1857 9.99716 12.185 10.3624 12.4041 10.5889C12.5144 10.7022 12.6583 10.7592 12.803 10.7592C12.9461 10.7592 13.09 10.7022 13.1996 10.5904L15.3339 8.40941C15.4398 8.30066 15.4997 8.15366 15.4997 7.99991C15.4997 7.84691 15.4398 7.69991 15.3339 7.59116Z" fill="#A8A8A8"/>
</svg>
