<svg width="25" height="26" viewBox="0 0 25 26" fill="none" xmlns="http://www.w3.org/2000/svg">
<path d="M3.07805 16.2546L3.92187 16.7323L3.07805 16.2546C2.89948 16.57 2.81339 16.9164 2.72383 17.2768C2.71723 17.3034 2.71062 17.33 2.70395 17.3567L1.61085 21.7291C1.60688 21.7449 1.60286 21.761 1.59881 21.7771C1.5352 22.0309 1.46326 22.318 1.43937 22.5623C1.41275 22.8343 1.4152 23.3273 1.8127 23.7248C2.21019 24.1223 2.70315 24.1247 2.97518 24.0981C3.21944 24.0742 3.50653 24.0023 3.76035 23.9386C3.77651 23.9346 3.79253 23.9306 3.8084 23.9266L8.1808 22.8335L8.18084 22.8335C8.18353 22.8328 8.18622 22.8322 8.1889 22.8315C8.21288 22.8255 8.2368 22.8196 8.26065 22.8136C8.62104 22.7241 8.96749 22.638 9.28288 22.4594C9.59826 22.2808 9.85033 22.0281 10.1125 21.7651C10.1318 21.7458 10.1512 21.7263 10.1706 21.7069L10.1707 21.7069L10.1796 21.6979L10.1796 21.6979L22.0222 9.85533L22.0664 9.81111C22.5777 9.29995 23.0295 8.84822 23.3447 8.43511C23.6863 7.98732 23.9591 7.47081 23.9591 6.82661C23.9591 6.18241 23.6863 5.6659 23.3447 5.21811C23.0295 4.805 22.5777 4.35327 22.0664 3.84211L22.0222 3.7979L21.7396 3.51525L21.6954 3.47107C21.1842 2.95982 20.7325 2.50799 20.3194 2.19279C19.8716 1.85114 19.3551 1.57833 18.7109 1.57833C18.0667 1.57833 17.5501 1.85114 17.1024 2.19279C16.6892 2.50799 16.2375 2.9598 15.7263 3.47105L15.6821 3.51525L3.8306 15.3668L4.52953 16.0657L3.8306 15.3668C3.81115 15.3862 3.79174 15.4056 3.77238 15.4249C3.50942 15.6871 3.25663 15.9392 3.07805 16.2546Z" stroke="#CCD2E3" stroke-width="1.97688"/>
</svg>
